<svg xmlns="http://www.w3.org/2000/svg" width="24" height="24" viewBox="0 0 24 24">
    <g fill="none" fill-rule="evenodd">
        <g>
            <g>
                <g>
                    <g>
                        <g>
                            <g>
                                <path d="M0 0L24 0 24 24 0 24z" transform="translate(-234.000000, -1180.000000) translate(178.000000, 298.000000) translate(40.000000, 490.000000) translate(0.000000, 362.000000) translate(0.000000, 25.000000) translate(16.000000, 5.000000)"/>
                                <path fill="#BCCCDC" fill-rule="nonzero" d="M19.35 10.04C18.67 6.59 15.64 4 12 4 9.11 4 6.6 5.64 5.35 8.04 2.34 8.36 0 10.91 0 14c0 3.31 2.69 6 6 6h13c2.76 0 5-2.24 5-5 0-2.64-2.05-4.78-4.65-4.96zM14 13v4h-4v-4H7l5-5 5 5h-3z" transform="translate(-234.000000, -1180.000000) translate(178.000000, 298.000000) translate(40.000000, 490.000000) translate(0.000000, 362.000000) translate(0.000000, 25.000000) translate(16.000000, 5.000000)"/>
                            </g>
                        </g>
                    </g>
                </g>
            </g>
        </g>
    </g>
</svg>
