<svg xmlns="http://www.w3.org/2000/svg" xmlns:xlink="http://www.w3.org/1999/xlink" width="148" height="29" viewBox="0 0 148 29">
    <defs>
        <path id="p4qj24uz6a" d="M0.316 0.922L120.3 0.922 120.3 19.513 0.316 19.513z"/>
        <path id="ru16ao90dc" d="M0.859 0.404L21.34 0.404 21.34 20.999 0.859 20.999z"/>
        <path id="ju63o1fsue" d="M0.527 0.414L15.186 0.414 15.186 21 0.527 21z"/>
    </defs>
    <g fill="none" fill-rule="evenodd">
        <g>
            <g>
                <path fill="#392A1A" d="M44.879 16.425c-1.571 1.5-3.121 2.5-5.58 2.5-3.793 0-6.655-3.068-6.655-7.138 0-4.039 2.862-7.086 6.655-7.086 2.052 0 3.677.712 5.429 2.373l.141.136 1.632-1.75-.139-.133c-1.577-1.486-3.52-2.86-7.036-2.86-5.214 0-9.144 4.03-9.144 9.372 0 5.315 3.897 9.32 9.067 9.32 3.606 0 5.673-1.601 7.217-3.168l.139-.139-1.59-1.555-.136.128zM6.951 7.312c-2.402 0-3.943 1.341-5.004 2.908V2.207H0V20.66h1.945v-2.502c1.013 1.467 2.58 2.78 5.006 2.78 3.161 0 6.246-2.527 6.246-6.825 0-4.322-3.11-6.8-6.246-6.8m-.353 11.881c-2.427 0-4.728-2.023-4.728-5.08 0-3.035 2.301-5.057 4.728-5.057 2.478 0 4.6 1.973 4.6 5.081 0 3.186-2.07 5.058-4.6 5.058" transform="translate(-142 -25) translate(150 28)"/>
                <g transform="translate(-142 -25) translate(150 28) translate(15 1.596)">
                    <mask id="jl61w1s76b" fill="#fff">
                        <use xlink:href="#p4qj24uz6a"/>
                    </mask>
                    <path fill="#392A1A" d="M114.382 9.066c-3.932-.842-4.65-1.763-4.65-3.272 0-1.582 1.468-2.688 3.571-2.688 1.831 0 3.413.597 4.985 1.877l.156.127 1.4-1.853-.149-.118c-1.935-1.553-3.832-2.217-6.339-2.217-3.484 0-6.01 2.123-6.01 5.048 0 3.319 2.435 4.527 6.094 5.322 3.76.792 4.446 1.699 4.446 3.199 0 1.696-1.506 2.838-3.747 2.838-2.29 0-4.01-.711-5.937-2.452l-.15-.135-1.49 1.765.14.125c2.202 1.966 4.541 2.88 7.361 2.88 3.73 0 6.237-2.098 6.237-5.224 0-2.756-1.77-4.317-5.918-5.222zm-21.129 2.18h9.656v-2.21h-9.656V3.384h10.794v-2.21h-13.18V19.26h13.307v-2.21h-10.92v-5.804zM83.69 19.26h2.386V1.175H83.69V19.26zM80.736 1.174h-3.125l-9.885 10.279V1.173H65.34V19.26h2.387v-4.867l3.555-3.604 6.723 8.47h3L72.945 9.12l7.79-7.945zM6.586 5.718c-3.615 0-6.27 3.033-6.27 6.825 0 4.07 2.933 6.826 6.523 6.826 2.478 0 4.07-.987 5.384-2.451l-1.215-1.088c-1.06 1.11-2.324 1.845-4.119 1.845-2.3 0-4.322-1.592-4.6-4.424h10.365c.025-.227.025-.431.025-.607 0-3.842-2.226-6.926-6.093-6.926zM2.29 11.81C2.54 9.256 4.26 7.36 6.535 7.36c2.605 0 3.97 2.073 4.172 4.45h-8.42.002z" mask="url(#jl61w1s76b)"/>
                </g>
                <path fill="#06A04A" d="M44.647 7.329c-2.723 1.67-4.687 3.779-5.484 4.717l-2.048-1.603c-.054-.04-1.178.958-1.148.989l3.729 3.79c.028.032.064.045.105.045.008 0 .019 0 .03-.003.047-.01.089-.043.107-.092.601-1.535 2.584-4.75 5.116-7.082.045-.041.061-.11.036-.166 0 0-.404-.617-.443-.595" transform="translate(-142 -25) translate(150 28)"/>
                <path fill="#D18338" d="M71.97 5.668c0 .307.25.556.558.556h.841c.31 0 .56-.249.56-.556 0-.31-.25-.559-.56-.559h-.84c-.153 0-.294.063-.395.164-.102.101-.164.241-.164.394m3.151 2.064c-.29-.292-.29-.76 0-1.053.292-.29.765-.29 1.055 0 .292.292.292.763 0 1.053-.292.292-.764.292-1.055 0" transform="translate(-142 -25) translate(150 28)"/>
                <g transform="translate(-142 -25) translate(150 28) translate(57 .596)">
                    <mask id="y2591f9w5d" fill="#fff">
                        <use xlink:href="#ru16ao90dc"/>
                    </mask>
                    <path fill="#D18338" d="M20.623 10.169c-.778-.147-1.477-.55-2-1.141-.317 0-.64-.014-.971-.067-.606-.098-1.184-.294-1.714-.57-.797-.352-1.471-.93-1.945-1.646-.556-.732-.945-1.597-1.097-2.538-.044-.278-.063-.552-.07-.821-.545-.517-.865-1.244-.844-2.028l.003-.064c.022-.463-.314-.875-.777-.886h-.01c-.375-.011-.743.002-1.111.032-.185.02-.368.039-.556.069-4.747.769-8.395 4.803-8.656 9.603-.334 6.15 4.724 11.207 10.875 10.872 2.99-.164 5.68-1.64 7.473-3.876 1.315-1.733 2.063-3.84 2.117-6.036v-.008c.012-.432-.291-.816-.717-.895zM7.307 5.656c.06-.058.133-.106.218-.133L8.79 5.1c.29-.097.608.06.705.353.097.292-.06.609-.353.706l-1.264.423c-.292.097-.61-.062-.706-.355-.07-.207-.01-.425.135-.57v-.001zm-1.987 6.97c-.582-.582-.582-1.527 0-2.108.583-.584 1.526-.584 2.109 0 .582.58.582 1.526 0 2.108-.583.582-1.527.582-2.11 0zm3.946 4.504h-.844c-.307 0-.557-.25-.557-.556 0-.155.063-.294.164-.394.1-.102.239-.164.393-.164h.844c.308 0 .559.25.559.557 0 .308-.251.558-.56.558v-.001zm2.44-6.628c0 .308-.25.558-.558.558-.306 0-.557-.25-.555-.556v-.846c0-.155.06-.294.162-.395.1-.101.24-.164.393-.164.309 0 .559.25.559.559v.843zm4.225 5.73c-.928.929-2.433.929-3.361 0-.928-.926-.928-2.431 0-3.36.928-.927 2.432-.927 3.36 0 .927.929.927 2.432 0 3.36z" mask="url(#y2591f9w5d)"/>
                </g>
                <g transform="translate(-142 -25) translate(150 28) translate(47 .596)">
                    <mask id="tcml1f0ybf" fill="#fff">
                        <use xlink:href="#ju63o1fsue"/>
                    </mask>
                    <path fill="#6A3E17" d="M11.928 17.119c-.023 0-.042.014-.064.014h-.843c-.31 0-.56-.25-.56-.56 0-.153.064-.293.165-.395.102-.101.239-.163.395-.163h.187c-1.015-1.785-1.525-3.837-1.413-5.928.202-3.682 2.314-6.933 5.39-8.72C11.515-.328 7.054.249 3.968 3.017-.62 7.13-.62 14.283 3.967 18.394c2.23 1.998 5.178 2.857 8.025 2.543 1.098-.15 2.155-.474 3.143-.953-.795-.463-1.538-1.017-2.198-1.676-.371-.371-.7-.774-1.01-1.19zm-6.344-2.146c0 .309-.25.559-.56.559-.306 0-.556-.25-.556-.56v-.84c0-.153.063-.292.164-.394.102-.101.239-.163.393-.163.309 0 .559.25.559.557v.843-.002zm3.05-3.838c-.584.582-1.527.582-2.11 0-.582-.583-.582-1.526 0-2.108.584-.584 1.528-.584 2.11 0 .58.582.58 1.525 0 2.108zm.397-6.303l-1.264.42c-.292.098-.608-.06-.706-.351-.07-.208-.01-.426.135-.572.059-.06.133-.106.218-.133l1.264-.423c.293-.097.609.06.706.353.097.292-.06.609-.353.706z" mask="url(#tcml1f0ybf)"/>
                </g>
            </g>
        </g>
    </g>
</svg>
