<svg id="Layer_1" data-name="Layer 1" xmlns="http://www.w3.org/2000/svg" viewBox="0 0 49.51 33.09"><defs><style>.cls-1{fill:#d28439;}.cls-1,.cls-2{fill-rule:evenodd;}.cls-2{fill:#6b3f18;}</style></defs><path class="cls-1" d="M41.12,34.24a3.81,3.81,0,1,1,0-5.39A3.8,3.8,0,0,1,41.12,34.24ZM34.33,25a.9.9,0,0,1-1.79,0V23.68a.9.9,0,0,1,.9-.9.9.9,0,0,1,.89.9V25ZM30.41,35.69H29.06a.9.9,0,0,1-.9-.9.88.88,0,0,1,.26-.63.93.93,0,0,1,.64-.26h1.35a.9.9,0,1,1,0,1.79Zm-6.34-7.24a2.4,2.4,0,1,1,3.39,0A2.41,2.41,0,0,1,24.07,28.45Zm3.19-11.2a1,1,0,0,1,.35-.21l2-.68a.89.89,0,1,1,.56,1.7l-2,.68a.9.9,0,0,1-1.13-.57.91.91,0,0,1,.21-.92Zm21.4,7.25a5.65,5.65,0,0,1-3.21-1.83,9,9,0,0,1-4.32-1A7.32,7.32,0,0,1,38,19a9.15,9.15,0,0,1-1.77-4.08,9.79,9.79,0,0,1-.11-1.32,4.29,4.29,0,0,1-1.35-3.25v-.11a1.32,1.32,0,0,0-1.25-1.42h0a15.17,15.17,0,0,0-1.79,0c-.3,0-.59.06-.89.11A16.57,16.57,0,1,0,46.41,35.65a16.75,16.75,0,0,0,3.4-9.7h0a1.43,1.43,0,0,0-1.15-1.44Z" transform="translate(-0.3 -8.81)"/><path class="cls-2" d="M14,15.93l-2,.67A.89.89,0,0,1,11,15.12a.82.82,0,0,1,.35-.21l2-.68a.88.88,0,0,1,1.13.56A.9.9,0,0,1,14,15.93Zm-.64,10.12a2.39,2.39,0,1,1,0-3.38A2.39,2.39,0,0,1,13.33,26.05Zm-4.9,6.17a.9.9,0,1,1-1.79,0V30.87a.88.88,0,0,1,.26-.63A.85.85,0,0,1,7.53,30a.9.9,0,0,1,.9.9v1.35Zm10.19,3.45-.1,0H17.16a.9.9,0,0,1-.63-1.53.84.84,0,0,1,.63-.26h.31a17.19,17.19,0,0,1,6.39-23.54A16.56,16.56,0,1,0,18.72,41.8a16.61,16.61,0,0,0,5.05-1.53,17.27,17.27,0,0,1-3.53-2.69A18.38,18.38,0,0,1,18.62,35.67Z" transform="translate(-0.3 -8.81)"/></svg>